<mxfile host="app.diagrams.net" modified="2023-12-15T06:43:31.075Z" agent="Mozilla/5.0 (Windows NT 10.0; Win64; x64) AppleWebKit/537.36 (KHTML, like Gecko) Chrome/119.0.0.0 Safari/537.36 OPR/105.0.0.0" version="22.1.9" etag="Iq75H1g0XyDTNp7bKJbR" type="github">
  <diagram name="Page-1" id="hQfu0kMgx-8FOcvt8yfI">
    <mxGraphModel>
      <root>
        <mxCell id="0" />
        <mxCell id="1" parent="0" />
      </root>
    </mxGraphModel>
  </diagram>
</mxfile>
